<svg width="410" height="278" viewBox="0 0 410 278" fill="none" xmlns="http://www.w3.org/2000/svg">
<rect width="410" height="278" fill="#F7F7F7"/>
<circle cx="23.5345" cy="23.5345" r="23.5345" transform="matrix(1 0 0 -1 69 162.069)" fill="#4BB8CB"/>
<rect width="50.431" height="6.72414" transform="matrix(1 0 0 -1 127.5 135.655)" fill="#1A3266"/>
<rect width="50.431" height="6.72" transform="matrix(1 0 0 -1 127.5 152.845)" fill="#5E6883"/>
<circle cx="5.0431" cy="5.0431" r="5.0431" transform="matrix(1 0 0 -1 192.052 154.672)" fill="#4BB8CB"/>
<rect width="50.431" height="6.72414" transform="matrix(1 0 0 -1 209.535 153.328)" fill="#5E6883"/>
<circle cx="5.0431" cy="5.0431" r="5.0431" transform="matrix(1 0 0 -1 192.052 136.517)" fill="#4BB8CB"/>
<rect width="50.431" height="6.72414" transform="matrix(1 0 0 -1 209.535 135.172)" fill="#5E6883"/>
<circle cx="5.0431" cy="5.0431" r="5.0431" transform="matrix(1 0 0 -1 274.086 154.672)" fill="#4BB8CB"/>
<rect width="50.431" height="6.72414" transform="matrix(1 0 0 -1 291.569 153.328)" fill="#5E6883"/>
<circle cx="5.0431" cy="5.0431" r="5.0431" transform="matrix(1 0 0 -1 274.086 136.517)" fill="#4BB8CB"/>
<rect width="50.431" height="6.72414" transform="matrix(1 0 0 -1 291.569 135.172)" fill="#5E6883"/>
</svg>
